<svg width="16" height="17" viewBox="0 0 16 17" fill="none" xmlns="http://www.w3.org/2000/svg">
<path d="M5.92121 11.3999L1.35321 8.11994C1.24562 8.05636 1.15645 7.96583 1.09452 7.85728C1.03258 7.74873 1 7.62592 1 7.50094C1 7.37596 1.03258 7.25314 1.09452 7.1446C1.15645 7.03605 1.24562 6.94552 1.35321 6.88194L5.92121 3.59994C6.0301 3.53589 6.154 3.50179 6.28033 3.50111C6.40666 3.50042 6.53092 3.53318 6.6405 3.59604C6.75008 3.6589 6.84108 3.74964 6.90426 3.85904C6.96743 3.96844 7.00054 4.09261 7.00021 4.21894V5.49994C8.50021 5.49994 13.0002 5.49994 14.0002 13.4999C11.5002 8.99994 7.00021 9.49994 7.00021 9.49994V10.7809C7.00021 11.3409 6.39421 11.6789 5.92121 11.4009V11.3999Z" fill="#3851A4"/>
</svg>
