<svg width="14" height="11" viewBox="0 0 14 11" fill="none" xmlns="http://www.w3.org/2000/svg">
<path d="M5.59767 1.51296C5.61976 1.50324 5.64394 1.49922 5.66798 1.50128C5.69203 1.50334 5.71518 1.51142 5.73529 1.52476C5.7554 1.5381 5.77184 1.55628 5.78309 1.57764C5.79434 1.59899 5.80004 1.62283 5.79967 1.64696V2.79996C5.79967 2.93257 5.85235 3.05974 5.94612 3.15351C6.03988 3.24728 6.16706 3.29996 6.29967 3.29996C6.96667 3.29996 8.31267 3.30496 9.59967 4.12196C10.5837 4.74596 11.5897 5.88196 12.1947 7.99796C11.1747 7.01496 10.0097 6.48196 8.98967 6.19896C8.36272 6.0258 7.71839 5.92316 7.06867 5.89296C6.80272 5.88128 6.53633 5.88395 6.27067 5.90096H6.25767L6.25267 5.90196H6.25167L6.29967 6.39996L6.24967 5.90196C6.12625 5.91436 6.01185 5.9722 5.92869 6.06423C5.84553 6.15626 5.79954 6.27592 5.79967 6.39996V7.55296C5.79967 7.66096 5.68967 7.72896 5.59767 7.68696L1.61367 4.75396C1.60015 4.74393 1.58613 4.73458 1.57167 4.72596C1.54992 4.71289 1.53193 4.69442 1.51944 4.67234C1.50695 4.65026 1.50039 4.62533 1.50039 4.59996C1.50039 4.57459 1.50695 4.54965 1.51944 4.52758C1.53193 4.5055 1.54992 4.48703 1.57167 4.47396C1.58613 4.46534 1.60015 4.456 1.61367 4.44596L5.59767 1.51296ZM6.79967 6.88596C6.86767 6.88596 6.94267 6.88896 7.02267 6.89196C7.45667 6.91196 8.05667 6.97796 8.72267 7.16296C10.0487 7.53096 11.6187 8.36496 12.6627 10.243C12.7191 10.3443 12.8091 10.4229 12.9171 10.4652C13.0252 10.5076 13.1446 10.511 13.2549 10.4749C13.3651 10.4389 13.4595 10.3656 13.5216 10.2676C13.5838 10.1697 13.61 10.0531 13.5957 9.93796C13.1317 6.22796 11.7097 4.27596 10.1357 3.27796C8.89067 2.48796 7.60867 2.33596 6.79967 2.30696V1.64696C6.79976 1.44103 6.74427 1.23889 6.63904 1.06187C6.53381 0.884857 6.38275 0.739527 6.2018 0.641217C6.02085 0.542908 5.81672 0.495265 5.61094 0.503316C5.40517 0.511367 5.20539 0.574813 5.03267 0.686959L1.03867 3.62696C0.873549 3.73003 0.737374 3.87342 0.642967 4.04364C0.548559 4.21386 0.499023 4.40531 0.499023 4.59996C0.499023 4.79461 0.548559 4.98605 0.642967 5.15627C0.737374 5.32649 0.873549 5.46989 1.03867 5.57296L5.03267 8.51296C5.20539 8.6251 5.40517 8.68855 5.61094 8.6966C5.81672 8.70465 6.02085 8.65701 6.2018 8.5587C6.38275 8.46039 6.53381 8.31506 6.63904 8.13805C6.74427 7.96103 6.79976 7.75889 6.79967 7.55296V6.88596Z" fill="#5A6774"/>
</svg>
