<svg width="14" height="13" viewBox="0 0 14 13" fill="none" xmlns="http://www.w3.org/2000/svg">
<path d="M13.076 11.9596L10.0993 9.08356C10.8372 8.21441 11.2819 7.10111 11.2819 5.88771C11.2819 3.10447 8.94449 0.84613 6.0638 0.84613C3.18058 0.84613 0.845703 3.10447 0.845703 5.88771C0.845703 8.67096 3.18058 10.9293 6.0638 10.9293C7.31968 10.9293 8.46943 10.502 9.36902 9.78914L12.3457 12.6627C12.5479 12.858 12.8739 12.858 13.076 12.6627C13.2782 12.4698 13.2782 12.1525 13.076 11.9596ZM6.0638 9.92586C3.75672 9.92586 1.88174 8.11431 1.88174 5.88771C1.88174 3.66112 3.75672 1.84712 6.0638 1.84712C8.36835 1.84712 10.2459 3.66112 10.2459 5.88771C10.2459 8.11431 8.36835 9.92586 6.0638 9.92586Z" fill="#5A6774"/>
</svg>
