<svg width="16" height="16" viewBox="0 0 16 16" fill="none" xmlns="http://www.w3.org/2000/svg">
<path fill-rule="evenodd" clip-rule="evenodd" d="M12.4134 1.76896C13.4695 1.46722 14.4459 2.44361 14.1442 3.4997L11.4778 12.8322C11.0333 14.3878 8.95534 14.68 8.0991 13.3073L6.23415 10.3174C6.07278 10.0587 5.8544 9.84035 5.5957 9.67898L2.60586 7.81403C1.23316 6.9578 1.52536 4.87984 3.08097 4.43538L12.4134 1.76896ZM12.8148 3.04934C12.808 3.04744 12.7977 3.04586 12.7797 3.05099L3.44726 5.71741C3.00281 5.8444 2.91932 6.4381 3.31152 6.68274L6.30135 8.54769C6.73252 8.81663 7.09649 9.18061 7.36544 9.61178L9.23039 12.6016C9.47503 12.9938 10.0687 12.9103 10.1957 12.4659L12.8621 3.13341C12.8673 3.11544 12.8657 3.10513 12.8638 3.09832C12.8613 3.0894 12.8555 3.07828 12.8452 3.06795C12.8348 3.05762 12.8237 3.05183 12.8148 3.04934Z" fill="#5A6774"/>
<path fill-rule="evenodd" clip-rule="evenodd" d="M9.49509 6.19526C9.75544 6.45561 9.75544 6.87772 9.49509 7.13807L7.13807 9.49509C6.87772 9.75544 6.45561 9.75544 6.19526 9.49509C5.93491 9.23474 5.93491 8.81263 6.19526 8.55228L8.55228 6.19526C8.81263 5.93491 9.23474 5.93491 9.49509 6.19526Z" fill="#5A6774"/>
</svg>
