<svg width="10" height="11" viewBox="0 0 10 11" fill="none" xmlns="http://www.w3.org/2000/svg">
<path fill-rule="evenodd" clip-rule="evenodd" d="M0.529247 1.02864C0.789596 0.768287 1.21171 0.768287 1.47206 1.02864L9.47206 9.02864C9.73241 9.28899 9.73241 9.7111 9.47206 9.97145C9.21171 10.2318 8.7896 10.2318 8.52925 9.97145L0.529247 1.97145C0.268897 1.7111 0.268897 1.28899 0.529247 1.02864Z" fill="#5A6774"/>
<path fill-rule="evenodd" clip-rule="evenodd" d="M9.47271 1.02864C9.21236 0.768287 8.79025 0.768287 8.5299 1.02864L0.529897 9.02864C0.269547 9.28899 0.269547 9.7111 0.529897 9.97145C0.790247 10.2318 1.21236 10.2318 1.47271 9.97145L9.47271 1.97145C9.73306 1.7111 9.73306 1.28899 9.47271 1.02864Z" fill="#5A6774"/>
</svg>
